<svg width="667" height="667" viewBox="0 0 667 667" fill="none" xmlns="http://www.w3.org/2000/svg">
<mask id="mask0_5_2424" style="mask-type:luminance" maskUnits="userSpaceOnUse" x="0" y="0" width="667" height="667">
<path d="M0 6.10352e-05H666.667V666.667H0V6.10352e-05Z" fill="white"/>
</mask>
<g mask="url(#mask0_5_2424)">
<path d="M287.102 323.419H287.101C287.104 323.419 287.104 323.419 287.106 323.42L287.102 323.419Z" fill="#9D71F4"/>
<mask id="mask1_5_2424" style="mask-type:luminance" maskUnits="userSpaceOnUse" x="128" y="107" width="423" height="423">
<path d="M128.184 107.528H550.237V529.581H128.184V107.528Z" fill="white"/>
</mask>
<g mask="url(#mask1_5_2424)">
<g opacity="0.300003">
<path d="M128.184 318.555C128.184 435.101 222.664 529.581 339.21 529.581C455.757 529.581 550.237 435.101 550.237 318.555C550.237 202.008 455.757 107.528 339.21 107.528C222.664 107.528 128.184 202.008 128.184 318.555Z" fill="#78CFFE"/>
</g>
</g>
<path d="M592.279 575.139H107.015L158.288 503.936H541.005L592.279 575.139Z" fill="#FF5FAE"/>
<path d="M390.622 348.096C389.233 349.945 386.159 349.705 383.514 350.281C380.11 351.021 376.643 351.469 373.174 351.771C365.362 352.451 357.487 352.397 349.661 352.027C340.806 351.607 331.951 350.779 323.186 349.453C322.745 349.493 321.91 347.353 321.755 346.795C319.405 335.108 318.471 324.964 317.642 313.117C317.577 312.135 319.089 311.697 319.506 312.572C342.685 314.717 365.917 316.079 389.202 316.028C392.053 312.916 391.822 323.541 391.809 324.563C391.713 331.549 391.502 338.537 391.37 345.524C391.347 346.669 391.074 347.493 390.622 348.096Z" fill="#FFC18A"/>
<path d="M316.368 350.55C316.368 350.55 316.372 350.55 316.374 350.552C316.372 350.552 316.368 350.55 316.368 350.55Z" fill="#9D71F4"/>
<path d="M316.33 350.543C316.326 350.542 316.32 350.542 316.316 350.539C316.323 350.541 316.33 350.542 316.336 350.545C316.334 350.545 316.33 350.543 316.33 350.543Z" fill="#9D71F4"/>
<path d="M316.313 350.539C316.313 350.539 316.309 350.539 316.307 350.538C316.309 350.538 316.312 350.539 316.315 350.539H316.313Z" fill="#9D71F4"/>
<path d="M315.868 350.448C315.864 350.447 315.861 350.447 315.857 350.446C315.862 350.447 315.868 350.448 315.873 350.45L315.868 350.448Z" fill="#9D71F4"/>
<path d="M315.838 350.442C315.834 350.441 315.829 350.44 315.825 350.44C315.835 350.441 315.846 350.444 315.858 350.446C315.851 350.445 315.845 350.444 315.838 350.442Z" fill="#9D71F4"/>
<path d="M243.35 479.012C233.766 478.349 224.105 478.524 214.546 478.483C213.955 478.959 214.486 477.247 214.383 476.476C210.645 447.629 206.593 420.007 203.617 391.065C201.791 373.303 194.537 350.085 211.774 340.809C222.639 334.961 259.869 341.481 272.817 344.435C275.565 348.005 275.089 353.727 275.777 358.164C276.769 371.772 277.345 385.455 278.217 398.987C278.349 399.032 278.482 399.076 278.614 399.12C278.502 399.804 278.481 400.503 278.282 401.171C268.158 397.819 256.386 394.283 246.113 391.521C248.489 401.587 249.95 411.865 249.442 422.168C248.631 439.161 248.442 456.485 247.197 473.312C246.931 476.38 247.178 479.717 243.35 479.012Z" fill="#FFC18A"/>
<path d="M246.878 398.164C245.715 392.218 243.239 386.531 239.55 381.712C237.49 379.146 235.014 377.114 232.694 374.844C232.071 373.808 233.544 372.732 234.34 373.65C234.319 373.619 234.29 373.599 234.262 373.574C238.41 377.142 242.31 381.102 244.747 386.066C245.748 387.139 251.743 402.327 246.878 398.164Z" fill="black"/>
<path d="M248.334 453.537C249.271 453.537 248.123 462.564 247.99 467.388C247.632 480.401 247.419 493.417 247.126 506.431C249.315 511.033 231.847 512.065 228.812 511.763C226.695 511.525 214.464 510.769 216.683 507.428C214.903 492.013 213.126 476.6 211.344 461.183C211.547 459.241 209.206 453.537 211.651 453.539C223.56 453.541 236.491 453.051 248.334 453.537Z" fill="white"/>
<path d="M217.358 465.893C216.291 465.761 214.92 466.069 214.098 465.3C213.483 464.561 214.155 463.477 215.131 463.604C224.851 464.435 234.752 463.589 244.522 463.735C245.534 463.776 247.254 463.401 247.323 464.757C247.323 465.316 246.818 465.783 246.214 465.783C236.595 465.727 226.975 466.156 217.358 465.893Z" fill="#9D71F4"/>
<path d="M216.571 473.326C214.901 473.723 214.105 471.427 215.975 471.257C225.633 471.375 235.294 470.834 244.955 470.966C246.399 470.994 246.423 472.982 244.955 473.018C235.493 472.899 226.03 473.377 216.571 473.326Z" fill="#9D71F4"/>
<path d="M506.399 471.334C506.772 471.786 506.631 472.504 506.151 472.818C498.176 484.651 488.904 495.755 481.151 507.788C472.063 519.538 461.089 544.836 442.792 542.907C436.272 542.219 431.271 536.748 426.505 532.719C420.848 527.938 415.461 522.84 410.308 517.522C399.993 506.878 390.617 495.359 381.787 483.466C381.225 482.063 377.325 478.726 380.244 478.071C396.372 470.704 412.759 463.603 429.748 458.456C430.647 458.166 432.159 457.696 432.263 459.104C437.131 467.755 441.579 476.647 446.813 485.082C452.512 471.734 469.255 455.928 481.404 448.846C490.737 454.29 498.933 463.552 506.399 471.334Z" fill="#FFC18A"/>
<path d="M451.777 500.914C449.862 496.304 448.294 491.548 446.267 486.988C445.231 485.744 447.31 484.301 447.982 485.842C449.834 489.753 451.125 493.908 452.793 497.902C453.033 498.984 454.541 500.705 453.121 501.461C452.618 501.674 451.983 501.436 451.777 500.914Z" fill="black"/>
<path d="M248.333 542.739H167.336V536.88H248.333V542.739Z" fill="white"/>
<path d="M248.614 504.962C248.608 512.942 248.328 518.814 248.384 526.795C247.95 528.755 249.464 538.371 247.37 538.238C230.942 538.437 214.518 538.645 198.089 538.845C189.448 538.954 180.806 539.057 172.165 539.165C170.902 538.943 168.873 539.858 168.193 538.475C167.788 538.383 167.449 538.047 167.396 537.617C167.018 528.113 171.297 524.407 179.257 520.381C191.925 514.215 204.284 509.049 215.957 501.139C224.62 502.73 238.594 503.755 247.245 501.139C248.457 501.015 248.617 501.139 248.614 504.962Z" fill="#9D71F4"/>
<path d="M196.925 520.407C195.945 518.698 194.907 516.867 193.877 515.21C193.072 514.13 194.673 512.901 195.499 513.958C196.111 515.642 199.896 519.342 198.329 520.775C197.855 521.055 197.204 520.894 196.925 520.407Z" fill="black"/>
<path d="M202.638 517.365C202.298 515.676 198.179 511.194 200.939 510.458C202.655 511.152 203.353 514.952 204.527 516.568C205.033 517.804 203.215 518.596 202.638 517.365Z" fill="black"/>
<path d="M208.573 514.289C208.233 512.599 204.115 508.118 206.875 507.382C208.591 508.075 209.288 511.875 210.463 513.491C210.968 514.726 209.151 515.519 208.573 514.289Z" fill="black"/>
<path d="M205.108 509.138C199.359 508.312 193.727 502.098 195.324 496.672C197.257 490.102 204.72 499.304 205.829 503.012C208.663 487.206 219.053 498.45 207.075 508.251C206.848 509.1 205.845 509.235 205.108 509.138ZM205.139 507.067C205.165 507.026 205.196 506.987 205.228 506.95C203.779 503.562 202.652 499.634 199.583 497.339C196.719 495.468 197.115 498.146 197.876 500.068C198.903 503.467 201.579 506.403 205.139 507.067ZM207.648 504.962C208.917 503.311 211.539 499.335 210.541 497.316C208.575 497.616 207.856 503.248 207.648 504.962Z" fill="black"/>
<path d="M167.547 538.3C167.415 536.124 179.236 537.639 181.419 537.14C190.258 537.053 199.096 536.968 207.936 536.88C216.72 536.789 225.502 536.715 234.284 536.621C236.684 537.077 248.99 535.311 248.932 537.504C248.939 539.652 239.43 538.173 237.446 538.643C228.627 538.724 219.81 538.824 210.991 538.901C197.926 539.024 184.86 539.16 171.795 539.285C170.464 539.027 167.891 540.127 167.547 538.3Z" fill="black"/>
<path d="M168.255 544.552C166.957 544.566 166.904 542.498 168.245 542.502C176.975 542.418 185.701 542.327 194.432 542.246C207.609 542.111 220.789 541.99 233.967 541.856C236.367 542.312 248.672 540.544 248.615 542.739C248.62 543.303 248.157 543.767 247.596 543.774C239.743 543.866 231.891 543.919 224.037 544.006C205.443 544.188 186.849 544.367 168.255 544.552Z" fill="black"/>
<path d="M477.872 448.679C477.196 448.03 484.275 442.314 487.711 438.925C496.98 429.785 506.147 420.542 515.371 411.357C516.979 406.519 530.296 417.871 532.275 420.191C533.639 421.829 541.939 430.843 538.024 431.718C528.633 444.071 519.243 456.422 509.852 468.777C508.361 470.038 506.1 475.775 504.337 474.081C495.747 465.831 486.079 457.23 477.872 448.679Z" fill="white"/>
<path d="M508.776 461.215C509.454 462.05 510.656 462.775 510.717 463.901C510.649 464.859 509.413 465.177 508.797 464.409C502.36 457.079 494.63 450.833 487.684 443.962C486.982 443.231 485.482 442.311 486.37 441.285C486.758 440.881 487.445 440.894 487.882 441.313C494.781 448.014 502.02 454.366 508.776 461.215Z" fill="#9D71F4"/>
<path d="M514.49 456.398C515.971 457.268 514.955 459.475 513.487 458.303C506.602 451.531 499.258 445.231 492.378 438.444C491.355 437.424 492.715 435.974 493.798 436.964C500.545 443.603 507.701 449.811 514.49 456.398Z" fill="#9D71F4"/>
<path d="M504.081 393.503L584.322 382.467L585.121 388.271L504.879 399.307L504.081 393.503Z" fill="white"/>
<path d="M508.95 430.965C507.869 423.059 507.346 417.204 506.203 409.304C506.366 407.303 503.555 397.983 505.647 397.831C521.895 395.395 538.139 392.951 554.387 390.515C562.933 389.229 571.481 387.949 580.026 386.664C581.307 386.712 583.193 385.529 584.055 386.807C584.469 386.843 584.85 387.129 584.962 387.549C586.63 396.912 582.897 401.167 575.561 406.241C563.85 414.075 546.487 422.771 536.001 432.196C527.202 431.801 519.041 430.796 510.827 434.565C509.643 434.853 509.467 434.753 508.95 430.965Z" fill="#9D71F4"/>
<path d="M558.053 408.621C559.257 410.181 560.535 411.853 561.781 413.354C562.726 414.316 561.307 415.75 560.345 414.816C559.509 413.232 555.254 410.081 556.611 408.448C557.043 408.106 557.71 408.177 558.053 408.621Z" fill="black"/>
<path d="M552.807 412.414C553.374 414.04 558.065 417.919 555.431 419.024C553.637 418.571 552.429 414.902 551.045 413.462C550.375 412.306 552.069 411.272 552.807 412.414Z" fill="black"/>
<path d="M547.347 416.27C547.913 417.897 552.604 421.775 549.971 422.881C548.176 422.427 546.968 418.758 545.584 417.318C544.915 416.162 546.608 415.129 547.347 416.27Z" fill="black"/>
<path d="M550.914 420.901C556.722 420.935 563.148 426.325 562.306 431.917C561.286 438.69 552.638 430.59 551.034 427.067C550.381 443.111 538.556 433.389 549.086 422.046C549.196 421.174 550.17 420.905 550.914 420.901ZM551.166 422.957C551.145 423.001 551.121 423.043 551.093 423.085C552.992 426.243 554.642 429.982 557.996 431.837C561.088 433.299 560.33 430.701 559.314 428.899C557.834 425.673 554.784 423.129 551.166 422.957ZM548.966 425.383C547.934 427.193 545.88 431.489 547.142 433.351C549.05 432.787 548.994 427.11 548.966 425.383Z" fill="black"/>
<path d="M584.719 386.893C585.145 389.03 573.228 389.141 571.135 389.933C562.391 391.222 553.644 392.511 544.899 393.802C536.211 395.089 527.52 396.359 518.832 397.649C516.392 397.525 504.443 400.951 504.201 398.77C503.903 396.643 513.523 396.813 515.425 396.077C524.151 394.795 532.872 393.495 541.597 392.217C554.524 390.314 567.449 388.399 580.376 386.495C581.729 386.57 584.129 385.13 584.719 386.893Z" fill="black"/>
<path d="M583.166 380.795C584.449 380.606 584.783 382.646 583.455 382.826C574.818 384.098 566.186 385.376 557.547 386.647C544.511 388.575 531.47 390.491 518.434 392.419C515.994 392.295 504.045 395.722 503.803 393.54C503.721 392.983 504.115 392.46 504.67 392.378C512.438 391.216 520.21 390.092 527.978 388.938C546.374 386.222 564.77 383.512 583.166 380.795Z" fill="black"/>
<path d="M385.339 491.564C385.011 491.479 384.663 491.083 384.649 490.689C368.871 468.413 356.057 444.205 342.829 420.377C319.259 414.655 294.412 408.261 271.464 400.428C266.467 397.733 261.9 338.519 266.795 342.316C280.224 344.976 293.855 346.533 307.328 348.965C309.488 349.355 321.865 351.74 321.864 351.703C321.864 351.725 321.972 346.053 321.271 344.852C337.925 345.397 353.028 345.765 369.081 345.136C376.357 344.883 384.271 344.939 391.369 345.524C393.421 347.624 393.147 349.603 394.217 352.296C422.649 365.345 424.781 397.773 421.861 424.92C425.955 438.739 432.015 452.028 437.275 465.435C437.964 468.376 427.631 473.105 425.913 474.417C413.095 481.251 399.467 488.812 385.339 491.564Z" fill="#9D71F4"/>
<path d="M387.296 484.713C386.096 484.459 386.284 482.759 387.463 482.63C401.865 477.942 415.496 471.105 428.876 464.067C439.087 464.337 389.509 484.991 387.296 484.713Z" fill="black"/>
<path d="M343.609 416.214C340.851 409.402 338.272 402.508 335.745 395.608C331.544 383.096 327.873 370.348 325.123 357.427C325.172 357.262 325.184 357.072 325.132 356.862C324.823 355.578 324.54 354.29 324.269 352.999C324.221 352.327 324.161 351.648 323.9 351.176C323.423 348.748 322.995 346.31 322.607 343.86C319.204 339.754 321.349 349.598 322.532 354.676C326.564 376.071 333.567 396.858 341.719 417.012C342.241 418.258 344.131 417.407 343.609 416.214Z" fill="black"/>
<path d="M368.834 353.253C366.888 352.646 327.733 354.442 335.802 350.646C354.038 350.585 372.46 352.498 390.596 350.086C398.442 353.396 370.412 353.456 368.834 353.253Z" fill="black"/>
<path d="M403.889 251.207C399.725 242.981 399.725 232.041 388.605 225.875C384.28 223.477 379.128 225.815 378.829 223.689C377.956 217.471 376.943 211.187 375.671 197.936C377.864 197.155 376.836 186.051 375.295 182.219C375.219 181.091 376.105 180.12 376.636 179.183C379.231 174.913 381.287 167.127 375.541 164.519C371.309 163.325 367.136 161.735 363.769 158.829C358.343 154.144 354.129 147.136 347.24 144.463C340.275 141.76 332.852 144.291 326.211 146.735C323.837 147.608 324.455 152.237 324.423 154.323C324.363 158.315 324.421 162.311 324.564 166.3C324.876 175.055 325.293 184.188 327.681 192.665C329.248 201.7 330.976 206.617 332.427 207.417C335.673 209.205 342.451 208.671 346.865 207.679C347.508 214.32 348.853 220.141 348.995 226.42C346.053 229.536 333.465 245.119 327.636 251.752C325.768 253.877 313.985 267.189 318.324 267.96C318.223 268.573 318.601 269.281 319.619 269.315C334.695 276.12 350.045 282.407 365.389 288.616C373.425 292.181 381.449 296.845 390.028 298.62C391.519 298.883 391.548 299.851 392.669 297.805C393.956 295.46 394.271 292.311 394.685 289.719C396.564 277.985 410.943 265.141 403.889 251.207Z" fill="#FFC18A"/>
<path d="M426.786 185.476C421.714 177.858 412.56 173.422 407.08 166.234C409.814 174.756 418.614 181.342 426.786 185.476ZM461.925 188.45C461.288 183.438 458.418 179.811 454.512 177.264C459.033 182.564 460.912 190.016 459.841 196.888C461.224 194.307 461.964 191.343 461.925 188.45ZM460.538 179.935C466.658 187.356 463.649 197.056 457.578 203.415C457.497 216.976 442.57 224.763 430.448 221.168C422.042 229.264 405.366 216.098 413.593 206.647C414.428 205.68 416.45 205.33 416.44 207.074C409.069 223.214 437.805 212.74 428.624 189.578C426.305 187.084 423.093 185.798 420.218 184.082C415.077 181.015 410.049 178.176 407.04 172.758C405.588 170.144 404.726 167.252 404.154 164.331C403.51 161.042 404.073 157.602 403.209 154.342C402.242 150.7 398.757 149.935 395.71 148.723C394.3 148.162 392.762 147.379 391.642 146.34C390.141 144.95 390.24 143.726 389.614 141.982C388.216 138.084 400.629 130.61 410.448 131.291C430.109 132.656 423.965 162.458 440.664 168.636C447.409 171.975 455.72 173.76 460.538 179.935Z" fill="#FF5FAE"/>
<path d="M393.196 189.286C392.059 191.483 390.199 193.115 388.139 194.43C386.344 195.574 384.408 196.476 382.384 197.126C383.049 196.734 383.684 196.316 384.277 195.894C387.711 193.446 390.757 190.419 393.231 186.958C393.796 186.166 394.325 185.348 394.825 184.512C394.439 186.16 393.969 187.792 393.196 189.286ZM399.336 162.498C398.693 150.156 391.905 139.63 381.34 133.83C373.915 129.752 364.772 127.767 356.395 128.063C346.028 128.428 338.056 131.359 329.221 136.179C326.493 137.667 322.36 140.158 322.077 143.814C321.912 145.954 323.725 148.246 326.18 147.96C332.961 147.175 333.808 147.983 336.103 148.223C346.864 149.348 355.907 153.07 360.531 158.72C361.127 159.447 366.887 165.806 367.033 165.619C376.468 164.775 377.687 173.831 373.745 179.656C370.153 184.967 366.736 182.16 367.959 185.476C368.831 191.118 369.404 192.61 370.792 197.73C371.639 200.854 376.5 199.899 378.755 199.554C382.064 199.046 385.279 197.915 388.165 196.216C390.323 194.947 392.367 193.366 393.795 191.284C395.299 189.091 395.949 186.448 396.532 183.891C396.933 182.127 397.311 180.358 397.669 178.584C399.551 173.488 400.229 167.962 399.336 162.498Z" fill="#FF5FAE"/>
<path d="M333.263 194.731C331.734 194.655 325.424 193.734 328.299 191.492C329.954 191.842 331.618 192.696 333.447 192.691C337.634 193.496 341.326 188.904 342.34 190.402C343.199 193.356 335.512 195.063 333.263 194.731Z" fill="black"/>
<path d="M346.632 207.984C346.5 206.786 347.881 206.774 348.721 206.612C352.717 205.802 356.429 204.118 359.938 202.088C361.109 201.438 362.122 203.151 360.974 203.859C358.949 205.039 347.706 210.87 346.632 207.984Z" fill="black"/>
<path d="M369.266 184.374C368.063 184.453 367.899 182.686 369.099 182.546C370.555 182.469 371.819 181.57 372.807 180.557C375.514 177.63 377.633 170.561 373.437 168.082C372.361 167.546 373.115 165.928 374.214 166.42C381.173 170.142 376.498 183.86 369.266 184.374Z" fill="black"/>
<path d="M367.696 174.933C365.653 173.838 369.604 169.971 370.989 169.643C372.081 169.031 374.079 170.071 372.833 171.253C372.341 171.634 371.829 171.149 371.331 171.473C369.624 171.962 369.239 175.146 367.696 174.933Z" fill="black"/>
<path d="M396.157 147.725C394.61 144.548 392.617 141.608 390.257 138.979C389.594 138.24 388.509 139.331 389.169 140.067C391.442 142.6 393.339 145.441 394.829 148.501C395.262 149.392 396.589 148.612 396.157 147.725Z" fill="black"/>
<path d="M361.834 167.734C361.47 164.286 360.957 160.855 360.438 157.413C360 154.509 360.253 150.759 356.4 150.601C346.713 150.205 336.969 151.373 327.298 152.099C322.454 152.463 317.472 152.957 312.756 154.091C309.534 154.866 307.049 155.727 306.852 159.218C306.45 166.342 307.641 173.531 308.992 180.518C310.458 188.099 322.514 186.461 328.446 186.065C336.781 185.509 345.038 184.254 353.286 183.05C355.016 182.797 356.746 182.526 358.488 182.347C362.138 181.973 362.542 178.449 362.422 175.574C362.314 172.961 362.109 170.333 361.834 167.734Z" fill="#9D71F4"/>
<path d="M350.76 181.888C350.23 171.617 350.061 161.384 348.482 151.221C348.585 150.428 349.684 150.069 350.249 150.685C352.05 158.479 351.993 166.839 352.484 174.832C352.565 177.12 352.602 179.405 352.796 181.687C352.902 182.973 350.928 183.187 350.76 181.888Z" fill="black"/>
<path d="M394.137 167.407C382.425 168.39 358.312 169.441 357.676 169.19C357.744 172.51 357.604 177.67 357.759 180.99C357.695 182.321 355.76 182.281 355.76 180.923C355.335 170.958 354.859 160.913 354.051 151.138C356.983 148.818 356.168 156.769 356.647 158.306C369.161 157.703 381.673 157.093 394.185 156.486C399.004 156.069 399.729 156.067 400.609 157.146C401.491 158.225 401.456 160.302 401.308 164.914C401.216 167.803 395.843 166.839 394.137 167.407Z" fill="black"/>
<path d="M319.021 158.699C322.078 157.649 316.753 167.618 316.713 169.102C315.988 170.807 315.694 172.829 314.528 174.286C313.732 174.853 312.841 173.677 313.602 173.059C313.572 173.082 313.544 173.111 313.518 173.139C315.696 168.506 316.674 163.186 319.021 158.699Z" fill="#C4A3F8"/>
<path d="M325.447 156.067C327.172 156.926 321.254 168.172 320.847 170.6C319.82 172.3 318.072 180.559 316.186 180.123C315.715 179.916 315.566 179.248 315.95 178.884C318.799 172.11 321.204 165.11 323.866 158.276C324.291 157.531 324.264 155.854 325.447 156.067Z" fill="#C4A3F8"/>
<path d="M343.368 171.485C343.515 172.445 344.411 173.105 345.371 172.959C346.331 172.813 346.991 171.917 346.845 170.957C346.699 169.996 345.803 169.337 344.841 169.483C343.883 169.629 343.223 170.525 343.368 171.485Z" fill="#C4A3F8"/>
<path d="M343.817 177.865C343.963 178.825 344.86 179.485 345.82 179.339C346.78 179.193 347.44 178.297 347.293 177.337C347.148 176.377 346.252 175.717 345.291 175.863C344.331 176.009 343.671 176.905 343.817 177.865Z" fill="#C4A3F8"/>
<path d="M535.657 431.09C537.157 433.279 537.102 436.13 534.619 437.525C534.355 437.755 533.902 437.911 533.945 438.326C533.985 441.567 533.114 444.761 529.973 445.414C528.579 445.703 529.923 448.65 529.223 449.993C528.098 452.154 524.291 451.671 521.227 448.958C523.766 452.987 524.365 457.902 518.057 457.023C512.097 452.785 507.842 446.399 502.287 441.603C502.278 445.006 502.001 448.449 500.689 451.603C498.462 456.597 496.239 456.449 495.105 451.609C492.401 440.059 488.15 435.067 488.509 426.603C472.842 410.843 456.723 395.155 443.505 377.201C435.03 366.401 428.457 354.286 420.882 342.875C410.302 329.311 398.37 316.702 386.341 304.465C368.333 288.082 358.953 261.319 369.559 238.307C371.313 234.359 374.263 231.123 377.151 227.97C378.293 227.154 381.89 224.373 383.165 224.495C396.273 227.41 401.279 243.929 407.521 254.654C420.407 275.397 432.883 296.393 445.383 317.365C455.434 326.793 462.114 339.194 468.997 351.071C480.393 369.182 489.753 388.593 503.138 405.387C513.355 412.163 523.447 419.717 532.594 428.043C534.229 427.563 534.774 430.127 535.657 431.09Z" fill="#FFC18A"/>
<path d="M496.666 455.576C496.276 455.191 496.218 454.551 496.611 454.128C500.798 450.731 500.06 444.908 500.007 440.1C503.012 435 502.166 448.219 501.688 449.501C501.21 451.308 498.944 456.879 496.659 455.567L496.666 455.576Z" fill="black"/>
<path d="M521.216 452.482C518.416 448.962 516.002 445.231 513.19 441.741C512.348 440.706 513.924 439.399 514.769 440.442C514.77 440.439 514.773 440.437 514.774 440.434C517.59 443.963 520.016 447.67 522.8 451.178C523.645 452.197 522.049 453.519 521.216 452.482Z" fill="black"/>
<path d="M534.812 431.542C526.072 423.01 516.381 415.446 505.956 409.106C505.142 408.812 504.513 408.032 505.181 407.233C506.257 404.426 544.616 433.994 534.812 431.542Z" fill="black"/>
<path d="M393.887 296.987C394.379 297.103 392.515 305.993 392.339 315.804C392.307 317.54 392.832 322.357 390.995 322.396C370.627 322.828 350.309 323.335 330.087 321.395C326.681 320.685 319.657 320.765 317.335 318.612C314.141 313.396 313.189 306.543 310.957 300.723C309.097 294.445 307.088 288.063 307.387 281.439C307.764 270.851 321.635 255.833 325.357 253.105C325.756 252.813 328.063 253.095 328.556 253.101C336.289 253.212 340.441 253.775 348.316 252.728C358.131 245.707 361.364 239.175 369.816 230.713C373.381 226.751 376.916 223.26 380.088 224.163C381.285 224.504 382.699 224.52 385.031 225.004C387.911 225.603 384.92 227.4 383.979 228.721C376.335 237.228 369.675 246.652 364.935 257.088C367.687 264.157 369.959 273.407 375.999 282.561C380.36 289.172 387.444 295 393.887 296.987Z" fill="#9D71F4"/>
<path d="M364.364 319.381C348.724 318.796 332.73 318.751 317.428 315.348C316.636 315.323 316.194 314.372 316.614 313.731C318.086 312.395 322.109 314.705 324.148 314.657C344.609 317.212 365.398 317.933 385.978 316.753C387.417 317.079 389.758 315.392 390.505 317.101C391.144 320.252 367.65 319.019 364.364 319.381Z" fill="black"/>
<path d="M397.311 236.988C394.62 229.628 387.747 224.898 379.92 225.072C377.031 224.859 373.917 224.726 371.088 224.858C369.759 224.983 369.509 223.006 370.849 222.82C379.948 222.608 390.949 222.547 396.444 231.136C397.119 232.724 400.487 236.219 398.641 237.564C398.123 237.775 397.531 237.507 397.311 236.988Z" fill="black"/>
<path d="M490.86 414.197C490.791 413.805 490.656 413.421 490.427 413.049C489.475 411.507 487.623 410.566 486.356 409.313C482.64 405.637 478.984 401.898 475.379 398.113C468.167 390.542 461.156 382.781 454.254 374.927C453.908 374.535 453.571 374.134 453.219 373.749C441.886 361.367 434.402 346.341 426.444 331.753C421.614 324.154 415.195 317.749 409.692 310.65C398.19 296.417 387.922 281.229 376.434 266.987C376.082 266.555 375.447 266.455 374.996 266.803C373.732 268.215 376.192 269.458 376.84 270.671C386.824 283.661 396.344 297.026 406.467 309.918C413.406 319.041 421.974 327.039 427.27 337.315C441.299 367.595 465.547 391.201 488.776 414.547C487.747 420.598 487.215 426.957 488.352 433.026C488.631 434.355 490.58 433.99 490.374 432.671C489.87 430.311 489.726 427.891 489.759 425.483C489.81 423.121 489.927 420.725 490.304 418.39C490.524 417.026 491.1 415.565 490.86 414.197Z" fill="black"/>
<path d="M131.111 394.79H152.883L163.769 375.936L152.883 357.08H131.111L120.225 375.936L131.111 394.79ZM154.067 396.841H129.927L117.856 375.936L129.927 355.029H154.067L166.137 375.936L154.067 396.841Z" fill="#78CFFE"/>
<path d="M167.408 420.674H179.538L185.603 410.17L179.538 399.665H167.408L161.343 410.17L167.408 420.674ZM180.722 422.725H166.224L158.975 410.17L166.224 397.614H180.722L187.971 410.17L180.722 422.725Z" fill="#78CFFE"/>
<path d="M497.766 314.361H510.623L517.051 303.228L510.623 292.093H497.766L491.338 303.228L497.766 314.361ZM511.807 316.412H496.582L488.969 303.228L496.582 290.041H511.807L519.419 303.228L511.807 316.412Z" fill="#78CFFE"/>
<path d="M502.781 229.398H523.118L533.286 211.786L523.118 194.174H502.781L492.613 211.786L502.781 229.398ZM524.302 231.448H501.597L490.244 211.786L501.597 192.122H524.302L535.654 211.786L524.302 231.448Z" fill="#78CFFE"/>
<path d="M528.315 349.811H548.652L558.82 332.199L548.652 314.586H528.315L518.147 332.199L528.315 349.811ZM549.836 351.862H527.131L515.778 332.199L527.131 312.535H549.836L561.188 332.199L549.836 351.862Z" fill="#78CFFE"/>
<mask id="mask2_5_2424" style="mask-type:luminance" maskUnits="userSpaceOnUse" x="88" y="150" width="174" height="144">
<path d="M88.3318 150.331H261.176V293.821H88.3318V150.331Z" fill="white"/>
</mask>
<g mask="url(#mask2_5_2424)">
<g opacity="0.699997">
<path d="M117.011 293.821L261.175 252.485L235.888 150.331L88.3323 172.857L117.011 293.821Z" fill="#78CFFE"/>
</g>
</g>
<mask id="mask3_5_2424" style="mask-type:luminance" maskUnits="userSpaceOnUse" x="189" y="163" width="41" height="10">
<path d="M189.365 163.248H229.895V172.94H189.365V163.248Z" fill="white"/>
</mask>
<g mask="url(#mask3_5_2424)">
<path d="M189.376 172.352C189.311 171.963 189.576 171.619 189.949 171.54C195.828 170.289 201.703 169.041 207.58 167.793C213.409 166.557 219.24 165.311 225.071 164.077C226.387 164.115 229.2 162.399 229.895 163.799C229.812 165.148 227.631 164.725 226.681 165.172C219.401 166.716 212.124 168.269 204.845 169.812C199.959 170.852 195.075 171.888 190.188 172.927C189.82 173.005 189.439 172.719 189.376 172.352Z" fill="#78CFFE"/>
</g>
<mask id="mask4_5_2424" style="mask-type:luminance" maskUnits="userSpaceOnUse" x="204" y="171" width="27" height="8">
<path d="M204.165 171.88H230.667V178.423H204.165V171.88Z" fill="white"/>
</mask>
<g mask="url(#mask4_5_2424)">
<path d="M204.493 178.423C202.865 176.544 207.789 176.76 208.798 176.235C213.219 175.289 217.637 174.347 222.058 173.401C223.106 173.392 233.199 170.173 230.066 173.127C221.546 174.787 213.006 177.089 204.493 178.423Z" fill="#78CFFE"/>
</g>
<mask id="mask5_5_2424" style="mask-type:luminance" maskUnits="userSpaceOnUse" x="222" y="211" width="21" height="7">
<path d="M222.201 211.785H242.312V217.775H222.201V211.785Z" fill="white"/>
</mask>
<g mask="url(#mask5_5_2424)">
<path d="M222.203 217.397C222.079 215.906 229.699 215.086 231.255 214.323C233.181 214.217 241.792 210.621 242.311 212.175C242.203 213.753 235.917 214.182 234.351 214.962C232.371 215.079 222.619 218.982 222.203 217.397Z" fill="#78CFFE"/>
</g>
<mask id="mask6_5_2424" style="mask-type:luminance" maskUnits="userSpaceOnUse" x="224" y="218" width="21" height="7">
<path d="M224.335 218.931H244.223V224.423H224.335V218.931Z" fill="white"/>
</mask>
<g mask="url(#mask6_5_2424)">
<path d="M224.336 224.082C224.239 222.436 231.808 221.944 233.447 221.158C235.523 221.062 243.344 217.892 244.219 219.284C244.371 220.876 237.694 221.219 236.216 221.946C234.059 222.055 225.136 225.498 224.336 224.082Z" fill="#78CFFE"/>
</g>
<mask id="mask7_5_2424" style="mask-type:luminance" maskUnits="userSpaceOnUse" x="121" y="231" width="26" height="7">
<path d="M121.563 231.679H146.676V237.483H121.563V231.679Z" fill="white"/>
</mask>
<g mask="url(#mask7_5_2424)">
<path d="M121.563 237.114C121.563 235.505 130.228 235.034 132.153 234.254C134.672 234.159 145.903 230.531 146.676 232.05C146.675 233.653 138.285 234.079 136.403 234.846C133.929 234.938 122.221 238.642 121.563 237.114Z" fill="#78CFFE"/>
</g>
<mask id="mask8_5_2424" style="mask-type:luminance" maskUnits="userSpaceOnUse" x="123" y="239" width="23" height="7">
<path d="M123.177 239.311H145.024V245.229H123.177V239.311Z" fill="white"/>
</mask>
<g mask="url(#mask8_5_2424)">
<path d="M123.177 244.866C123.185 243.257 130.717 242.742 132.393 241.953C134.583 241.846 144.359 238.162 145.023 239.675C145.013 241.278 137.723 241.747 136.083 242.523C133.933 242.629 123.741 246.39 123.177 244.866Z" fill="#78CFFE"/>
</g>
<mask id="mask9_5_2424" style="mask-type:luminance" maskUnits="userSpaceOnUse" x="125" y="246" width="16" height="6">
<path d="M125.183 246.828H140.415V251.353H125.183V246.828Z" fill="white"/>
</mask>
<g mask="url(#mask9_5_2424)">
<path d="M125.195 250.873C125.125 250.492 125.38 250.146 125.743 250.058L125.741 250.06C127.937 249.914 140.124 245.552 140.415 247.2C140.225 248.78 133.775 249.144 132.14 249.926C130.572 249.96 125.819 252.349 125.195 250.873Z" fill="#78CFFE"/>
</g>
<mask id="mask10_5_2424" style="mask-type:luminance" maskUnits="userSpaceOnUse" x="132" y="196" width="98" height="78">
<path d="M132.287 196.369H229.271V273.319H132.287V196.369Z" fill="white"/>
</mask>
<g mask="url(#mask10_5_2424)">
<path d="M155.788 266.505C153.814 264.815 160.22 260.108 161.232 258.409C158.456 253.331 155.098 248.677 152.572 243.479C149.79 237.852 162.964 235.087 167.972 233.876C167.932 233.663 167.876 233.448 167.826 233.236L167.872 233.259C166.456 225.992 164.877 218.527 170.6 212.657C170.681 211.851 171.045 210.356 171.15 209.552C162.236 206.62 168.382 194.329 176.274 198.767C179.366 195.641 186.446 194.919 186.889 200.62C187.032 203.521 185.873 209.657 190.492 208.26C194.714 207.667 187.985 213.716 185.396 212.956C178.34 210.884 185.112 202.393 178.606 200.973C179.621 203.943 177.956 207.456 175.357 209.256C175.354 210.496 175.374 211.741 175.474 212.975C183.161 218.028 189.916 224.311 197.684 229.321C199.884 230.127 202.081 231.847 204.345 232.851C204.809 231.839 205.504 230.724 205.784 230.063C205.537 227.023 213.666 232.151 214.87 232.163C226.034 235.784 210.138 235.76 206.852 235.855C204.397 239.812 200.96 256.729 195.356 255.219C187.74 251.769 180.189 245.943 173.633 240.836C169.824 242.371 165.748 243.549 161.978 245.099C164.605 249.94 165.381 256.86 167.288 261.944C167.75 263.18 166.294 263.281 165.274 263.571C162.129 264.465 159.066 266.375 155.788 266.505ZM176.933 230.604C180.737 231.531 183.728 234.153 185.549 237.547C188.3 240.289 191.938 243.551 194.806 246.177C196.306 243.217 198.75 239.545 200.942 237.169C199.152 235.617 197.098 234.417 195.09 233.417C189.257 230.413 183.828 226.701 178.041 223.605C177.482 225.903 177.061 228.235 176.933 230.604Z" fill="#78CFFE"/>
<path d="M132.324 273.033C132.109 272.267 132.883 271.999 133.436 271.91C141.428 269.793 149.429 267.677 157.395 265.569C158.435 265.289 159.48 265.018 160.515 264.743C160.508 264.745 160.5 264.746 160.495 264.749C161.789 264.403 163.04 264.074 164.316 263.737C164.289 263.742 164.269 263.75 164.249 263.753C166.115 263.257 168.076 262.743 169.927 262.251C171.721 261.778 173.437 261.321 175.209 260.851C175.204 260.854 175.196 260.855 175.191 260.857H175.193C175.184 260.858 175.176 260.862 175.167 260.865C175.203 260.855 175.237 260.846 175.272 260.837C175.251 260.842 175.229 260.849 175.208 260.851C179.463 259.731 183.692 258.602 187.927 257.487C187.924 257.487 187.923 257.487 187.92 257.489C187.913 257.49 187.907 257.493 187.9 257.493C187.912 257.49 187.923 257.487 187.928 257.486C187.929 257.485 187.932 257.486 187.933 257.486C187.935 257.485 187.935 257.485 187.936 257.485C190.839 256.71 193.755 255.943 196.648 255.177L196.647 255.178C202.163 253.713 207.651 252.267 213.151 250.809C213.255 250.781 213.356 250.758 213.459 250.727L213.457 250.729C214.972 250.327 216.423 249.939 217.919 249.547C219.055 249.246 220.077 248.975 221.171 248.686C221.151 248.691 221.131 248.697 221.111 248.701C223.517 248.063 225.915 247.43 228.293 246.799C231.576 247.955 225.621 249.055 224.548 249.343C224.545 249.343 224.544 249.343 224.541 249.345C220.804 250.334 217.087 251.319 213.373 252.301C213.372 252.301 213.372 252.301 213.372 252.302C213.372 252.302 213.373 252.302 213.373 252.301C213.368 252.303 213.361 252.305 213.356 252.306C213.359 252.305 213.36 252.305 213.363 252.305C213.356 252.306 213.352 252.31 213.345 252.309H213.348C210.173 253.149 207.012 253.987 203.851 254.821C203.865 254.818 203.88 254.813 203.895 254.81C201.268 255.506 198.636 256.206 196.033 256.891C196.031 256.893 196.028 256.893 196.025 256.894C196.027 256.893 196.028 256.893 196.029 256.893C194.203 257.375 192.388 257.863 190.572 258.337C190.575 258.335 190.577 258.335 190.579 258.334C187.901 259.049 185.204 259.755 182.552 260.461C182.116 260.573 181.739 260.678 181.339 260.781C181.337 260.783 181.317 260.786 181.311 260.789C181.308 260.789 181.307 260.79 181.305 260.79C179.369 261.306 177.357 261.834 175.451 262.339C171.245 263.457 167.099 264.547 162.924 265.657C160.444 266.307 157.959 266.977 155.495 267.621C155.493 267.625 155.492 267.621 155.491 267.625C155.489 267.625 155.489 267.625 155.491 267.625C151.347 268.715 147.252 269.81 143.128 270.897C143.131 270.895 143.132 270.895 143.135 270.895C143.125 270.897 143.116 270.899 143.107 270.902C143.107 270.902 143.107 270.902 143.108 270.902C142.887 270.957 142.679 271.022 142.46 271.074C139.448 271.334 134.789 274.221 132.324 273.033Z" fill="#78CFFE"/>
</g>
<mask id="mask11_5_2424" style="mask-type:luminance" maskUnits="userSpaceOnUse" x="168" y="260" width="1" height="1">
<path d="M168.888 260.875H168.891V260.876H168.888V260.875Z" fill="white"/>
</mask>
<g mask="url(#mask11_5_2424)">
<path d="M168.888 260.876L168.891 260.875C168.891 260.877 168.888 260.876 168.888 260.876Z" fill="#9D71F4"/>
</g>
<mask id="mask12_5_2424" style="mask-type:luminance" maskUnits="userSpaceOnUse" x="168" y="260" width="1" height="1">
<path d="M168.892 260.873H168.897V260.875H168.892V260.873Z" fill="white"/>
</mask>
<g mask="url(#mask12_5_2424)">
<path d="M168.892 260.874C168.894 260.874 168.896 260.874 168.898 260.873C168.896 260.874 168.892 260.874 168.892 260.874Z" fill="#9D71F4"/>
</g>
<mask id="mask13_5_2424" style="mask-type:luminance" maskUnits="userSpaceOnUse" x="200" y="253" width="1" height="1">
<path d="M200.203 253.741H200.225V253.748H200.203V253.741Z" fill="white"/>
</mask>
<g mask="url(#mask13_5_2424)">
<path d="M200.207 253.747H200.206C200.213 253.745 200.219 253.743 200.225 253.741C200.218 253.744 200.21 253.747 200.202 253.748L200.207 253.747Z" fill="#78CFFE"/>
</g>
<mask id="mask14_5_2424" style="mask-type:luminance" maskUnits="userSpaceOnUse" x="217" y="249" width="1" height="1">
<path d="M217.252 249.071H217.261V249.073H217.252V249.071Z" fill="white"/>
</mask>
<g mask="url(#mask14_5_2424)">
<path d="M217.258 249.072L217.261 249.071L217.259 249.072C217.257 249.073 217.254 249.073 217.251 249.073C217.254 249.073 217.255 249.073 217.258 249.072Z" fill="#78CFFE"/>
</g>
<mask id="mask15_5_2424" style="mask-type:luminance" maskUnits="userSpaceOnUse" x="107" y="177" width="24" height="24">
<path d="M107.653 177.359H130.113V200.068H107.653V177.359Z" fill="white"/>
</mask>
<g mask="url(#mask15_5_2424)">
<path d="M117.541 199.994C104.777 198.666 104.189 179.704 116.833 177.574C128.098 175.381 134.997 190.493 125.941 197.546H125.942C123.613 199.442 120.521 200.342 117.541 199.994ZM118.57 178.814C118.106 178.826 117.621 178.876 117.2 178.944V178.945C103.582 181.572 108.288 201.866 121.665 198.244C132.589 195.072 129.912 178.428 118.57 178.814Z" fill="#78CFFE"/>
<path d="M119.303 193.521C117.499 192.366 113.529 188.958 113.971 186.634C114.441 184.518 117.038 184.924 118.27 186.254C119.227 183.945 122.442 182.621 122.825 185.997C122.715 187.914 121.334 194.306 119.303 193.521Z" fill="#78CFFE"/>
</g>
<mask id="mask16_5_2424" style="mask-type:luminance" maskUnits="userSpaceOnUse" x="116" y="204" width="23" height="24">
<path d="M116.335 204.763H138.795V227.472H116.335V204.763Z" fill="white"/>
</mask>
<g mask="url(#mask16_5_2424)">
<path d="M126.223 227.399C113.46 226.072 112.871 207.107 125.515 204.979C136.779 202.784 143.679 217.897 134.623 224.951C132.292 226.845 129.204 227.747 126.223 227.399ZM124.845 206.577C110.619 211.129 119.741 231.943 132.727 224.576C142.363 218.729 135.645 203.457 124.845 206.577Z" fill="#78CFFE"/>
<path d="M130.217 220.387L127.512 221.044L125.313 211.991L128.019 211.333L130.217 220.387Z" fill="#78CFFE"/>
<path d="M134.214 219.416L131.57 220.059L129.916 213.251L132.56 212.608L134.214 219.416Z" fill="#78CFFE"/>
<path d="M125.812 221.457L123.04 222.13L122.21 218.716L124.982 218.042L125.812 221.457Z" fill="#78CFFE"/>
</g>
<mask id="mask17_5_2424" style="mask-type:luminance" maskUnits="userSpaceOnUse" x="219" y="180" width="16" height="13">
<path d="M219.4 180.015H234.367V192.432H219.4V180.015Z" fill="white"/>
</mask>
<g mask="url(#mask17_5_2424)">
<path d="M234.366 190.005L221.993 192.433L219.4 182.278L231.822 180.015L234.366 190.005Z" fill="#78CFFE"/>
</g>
<mask id="mask18_5_2424" style="mask-type:luminance" maskUnits="userSpaceOnUse" x="213" y="197" width="26" height="17">
<path d="M213.841 197.161H238.64V213.007H213.841V197.161Z" fill="white"/>
</mask>
<g mask="url(#mask18_5_2424)">
<path d="M233.68 208.2L230.383 209.001L227.702 197.963L230.999 197.161L233.68 208.2Z" fill="#78CFFE"/>
<path d="M238.64 206.87L235.417 207.653L233.401 199.353L236.624 198.569L238.64 206.87Z" fill="#78CFFE"/>
<path d="M228.128 209.498L224.748 210.319L223.345 204.543L226.725 203.722L228.128 209.498Z" fill="#78CFFE"/>
<path d="M222.999 210.614L219.619 211.435L218.705 207.669L222.085 206.847L222.999 210.614Z" fill="#78CFFE"/>
<path d="M218.136 212.185L214.756 213.007L213.841 209.24L217.221 208.419L218.136 212.185Z" fill="#78CFFE"/>
</g>
<mask id="mask19_5_2424" style="mask-type:luminance" maskUnits="userSpaceOnUse" x="137" y="172" width="41" height="16">
<path d="M137.552 172.704H177.213V187.599H137.552V172.704Z" fill="white"/>
</mask>
<g mask="url(#mask19_5_2424)">
<path d="M151.13 187.599C150.951 187.592 150.79 187.484 150.718 187.316L147.027 178.758L145.857 183.131C145.81 183.303 145.671 183.435 145.495 183.47L138.114 184.947C137.861 184.996 137.611 184.834 137.561 184.579C137.51 184.326 137.675 184.078 137.929 184.027L145.026 182.607L146.47 177.21C146.522 177.016 146.69 176.878 146.889 176.863C147.086 176.85 147.275 176.962 147.354 177.146L150.978 185.551L151.923 180.703C151.961 180.515 152.109 180.367 152.298 180.332C152.487 180.296 152.678 180.38 152.781 180.543L153.979 182.447L156.766 173.04C156.821 172.855 156.983 172.722 157.175 172.706C157.369 172.686 157.551 172.792 157.637 172.967L163.083 184.083L165.015 176.13C165.061 175.939 165.221 175.798 165.415 175.775C165.609 175.75 165.797 175.851 165.887 176.024L168.822 181.672L168.955 178.176C168.963 177.96 169.119 177.778 169.333 177.735L176.651 176.267C176.905 176.218 177.153 176.38 177.203 176.635C177.254 176.888 177.09 177.136 176.835 177.187L169.879 178.582L169.691 183.479C169.683 183.692 169.533 183.872 169.325 183.919C169.117 183.964 168.905 183.866 168.806 183.678L165.631 177.567L163.689 185.566C163.642 185.758 163.479 185.9 163.283 185.922C163.086 185.939 162.898 185.839 162.811 185.662L157.323 174.46L154.586 183.707C154.533 183.883 154.382 184.014 154.199 184.038C154.015 184.064 153.837 183.979 153.738 183.824L152.618 182.044L151.609 187.22C151.569 187.422 151.403 187.575 151.198 187.596C151.175 187.599 151.153 187.6 151.13 187.599Z" fill="#78CFFE"/>
</g>
<path d="M77.2579 166.484L110.073 305.128L269.741 258.975L240.866 141.952L77.2579 166.484ZM108.357 308.066L74.3885 164.543L242.631 139.315L272.558 260.603L108.357 308.066Z" fill="#78CFFE"/>
<path d="M200.081 138.945C199.451 138.945 198.901 138.479 198.813 137.838C198.716 137.137 199.207 136.49 199.908 136.393L253.509 129.021C254.211 128.925 254.856 129.415 254.953 130.117C255.051 130.818 254.56 131.465 253.859 131.561L200.257 138.933C200.199 138.941 200.14 138.945 200.081 138.945Z" fill="#78CFFE"/>
<path d="M92.1772 324.759C91.6132 324.759 91.0959 324.383 90.9412 323.812C90.7559 323.129 91.1585 322.424 91.8425 322.239L175.725 299.488C176.409 299.304 177.113 299.707 177.299 300.391C177.484 301.073 177.08 301.777 176.397 301.963L92.5132 324.713C92.4012 324.744 92.2879 324.759 92.1772 324.759Z" fill="#78CFFE"/>
</g>
</svg>
